<?xml version="1.0" encoding="UTF-8" standalone="no"?>
<svg
   xmlns:osb="http://www.openswatchbook.org/uri/2009/osb"
   xmlns:dc="http://purl.org/dc/elements/1.1/"
   xmlns:cc="http://creativecommons.org/ns#"
   xmlns:rdf="http://www.w3.org/1999/02/22-rdf-syntax-ns#"
   xmlns:svg="http://www.w3.org/2000/svg"
   xmlns="http://www.w3.org/2000/svg"
   xmlns:sodipodi="http://sodipodi.sourceforge.net/DTD/sodipodi-0.dtd"
   xmlns:inkscape="http://www.inkscape.org/namespaces/inkscape"
   sodipodi:docname="pegas_P.svg"
   inkscape:version="1.0 (4035a4fb49, 2020-05-01)"
   id="svg3809"
   version="1.1"
   viewBox="0 0 67.733332 67.733335"
   height="256"
   width="256">
  <defs
     id="defs3803">
    <linearGradient
       osb:paint="solid"
       id="linearGradient5158">
      <stop
         id="stop5156"
         offset="0"
         style="stop-color:#f8e9fb;stop-opacity:1;" />
    </linearGradient>
    <linearGradient
       osb:paint="solid"
       id="linearGradient3911">
      <stop
         id="stop3909"
         offset="0"
         style="stop-color:#d3cadd;stop-opacity:1;" />
    </linearGradient>
    <rect
       id="rect3827"
       height="16.819537"
       width="17.912136"
       y="26.354029"
       x="25.750043" />
  </defs>
  <sodipodi:namedview
     inkscape:guide-bbox="true"
     inkscape:lockguides="true"
     showguides="true"
     inkscape:window-maximized="0"
     inkscape:window-y="36"
     inkscape:window-x="9"
     inkscape:window-height="723"
     inkscape:window-width="1350"
     units="px"
     showgrid="false"
     inkscape:document-rotation="0"
     inkscape:current-layer="layer1"
     inkscape:document-units="mm"
     inkscape:cy="89.754822"
     inkscape:cx="178.51883"
     inkscape:zoom="1.4"
     inkscape:pageshadow="2"
     inkscape:pageopacity="0.0"
     borderopacity="1.0"
     bordercolor="#666666"
     pagecolor="#ffffff"
     id="base">
    <sodipodi:guide
       id="guide4882"
       orientation="0,-1"
       position="42.898533,73.848654" />
    <sodipodi:guide
       id="guide4884"
       orientation="1,0"
       position="-38.158385,69.392585" />
  </sodipodi:namedview>
  <metadata
     id="metadata3806">
    <rdf:RDF>
      <cc:Work
         rdf:about="">
        <dc:format>image/svg+xml</dc:format>
        <dc:type
           rdf:resource="http://purl.org/dc/dcmitype/StillImage" />
        <dc:title></dc:title>
      </cc:Work>
    </rdf:RDF>
  </metadata>
  <g
     id="layer1"
     inkscape:groupmode="layer"
     inkscape:label="Layer 1">
    <text
       style="fill:black;fill-opacity:1;line-height:1.25;stroke:none;font-family:sans-serif;font-style:normal;font-weight:normal;font-size:10.58333333px;white-space:pre;shape-inside:url(#rect3827);"
       id="text3825"
       xml:space="preserve" />
    <path
       d="M 62.190521,15.235658 A 33.866664,33.866664 0 0 0 15.213175,6.1285409 33.866664,33.866664 0 0 0 6.0221298,53.089538 Z"
       style="opacity:1;fill:#87dec7;fill-opacity:1;fill-rule:nonzero;stroke-width:0.264583"
       id="path3823" />
    <path
       d="M 62.190521,15.235658 6.0221298,53.089538 a 33.866664,33.866664 0 0 0 0.033789,0.05014 33.866664,33.866664 0 0 0 47.0111368,9.157252 33.866664,33.866664 0 0 0 9.157255,-47.011136 33.866664,33.866664 0 0 0 -0.03379,-0.05014 z"
       style="opacity:1;fill:#217877;fill-opacity:1;fill-rule:nonzero;stroke-width:0.264583"
       id="path4889" />
    <path
       sodipodi:nodetypes="sccccccccs"
       id="path20-3-6-9"
       fill="#fa759e"
       d="M 8.0805702,42.434242 C 9.7083333,29.216123 57.449373,11.455612 58.080934,11.913549 c 0.738388,0.536054 1.267462,6.961806 -2.241317,12.505779 -5.71709,9.034223 -12.870602,10.48986 -12.870602,10.48986 0,0 13.356059,-2.871673 13.495597,-2.462324 0.102809,0.300378 -0.695392,5.206981 -5.996502,10.010861 -5.375297,4.870394 -11.254826,5.675935 -11.254826,5.675935 0,0 9.493212,0.0076 9.744539,0.753563 0.102978,0.305209 -3.542576,5.547313 -13.342019,8.483317 C 30.126889,59.015502 6.3543137,56.452162 8.0805702,42.434242 Z"
       style="mix-blend-mode:overlay;fill:#ffffff;fill-opacity:1;stroke-width:0.627484" />
  </g>
</svg>
